<svg xmlns="http://www.w3.org/2000/svg" xmlns:xlink="http://www.w3.org/1999/xlink" width="64" zoomAndPan="magnify" viewBox="0 0 48 48" height="64" preserveAspectRatio="xMidYMid meet" version="1.0"><defs><filter x="0%" y="0%" width="100%" height="100%" id="bbd3256637"><feColorMatrix values="0 0 0 0 1 0 0 0 0 1 0 0 0 0 1 0 0 0 1 0" color-interpolation-filters="sRGB"/></filter><clipPath id="3c566c5f5b"><path d="M 0.488281 0 L 47.507812 0 L 47.507812 47.019531 L 0.488281 47.019531 Z M 0.488281 0 " clip-rule="nonzero"/></clipPath><mask id="8364e5efa4"><g filter="url(#bbd3256637)"><rect x="-4.8" width="57.6" fill="#000000" y="-4.8" height="57.6" fill-opacity="0.24"/></g></mask><clipPath id="27198429c9"><path d="M 5.191406 11.167969 L 45.601562 11.167969 L 45.601562 36 L 5.191406 36 Z M 5.191406 11.167969 " clip-rule="nonzero"/></clipPath><mask id="e5e87c4296"><g filter="url(#bbd3256637)"><rect x="-10.56" width="69.12" fill="#000000" y="-10.56" height="69.120001" fill-opacity="0.148"/></g></mask><clipPath id="1d70f4171e"><path d="M 0.300781 0.832031 L 40.203125 0.832031 L 40.203125 24.253906 L 0.300781 24.253906 Z M 0.300781 0.832031 " clip-rule="nonzero"/></clipPath><clipPath id="a78a35eae7"><rect x="0" width="41" y="0" height="25"/></clipPath><mask id="88eb26a52b"><g filter="url(#bbd3256637)"><rect x="-10.56" width="69.12" fill="#000000" y="-10.56" height="69.120001" fill-opacity="0.191"/></g></mask><clipPath id="be4f1ef8e0"><path d="M 0.304688 0.851562 L 40.128906 0.851562 L 40.128906 24.25 L 0.304688 24.25 Z M 0.304688 0.851562 " clip-rule="nonzero"/></clipPath><clipPath id="3637c36969"><rect x="0" width="41" y="0" height="25"/></clipPath><clipPath id="f07cc33f28"><path d="M 5.191406 15 L 18 15 L 18 26 L 5.191406 26 Z M 5.191406 15 " clip-rule="nonzero"/></clipPath><mask id="3b0e2914f5"><g filter="url(#bbd3256637)"><rect x="-10.56" width="69.12" fill="#000000" y="-10.56" height="69.120001" fill-opacity="0.199"/></g></mask><clipPath id="3545ed6de6"><path d="M 2.445312 1.582031 L 12.183594 1.582031 L 12.183594 9.492188 L 2.445312 9.492188 Z M 2.445312 1.582031 " clip-rule="nonzero"/></clipPath><clipPath id="95f0c96811"><rect x="0" width="13" y="0" height="11"/></clipPath><mask id="f5b491533e"><g filter="url(#bbd3256637)"><rect x="-10.56" width="69.12" fill="#000000" y="-10.56" height="69.120001" fill-opacity="0.199"/></g></mask><clipPath id="bdac0635b3"><path d="M 1.585938 2.230469 L 17.285156 2.230469 L 17.285156 12.949219 L 1.585938 12.949219 Z M 1.585938 2.230469 " clip-rule="nonzero"/></clipPath><clipPath id="a80eceb886"><rect x="0" width="18" y="0" height="15"/></clipPath><clipPath id="177338939e"><rect x="0" width="48" y="0" height="48"/></clipPath></defs><g clip-path="url(#3c566c5f5b)"><path fill="#ffffff" d="M 0.488281 0 L 47.511719 0 L 47.511719 47.019531 L 0.488281 47.019531 Z M 0.488281 0 " fill-opacity="1" fill-rule="nonzero"/><path fill="#ffffff" d="M 0.488281 0 L 47.511719 0 L 47.511719 47.019531 L 0.488281 47.019531 Z M 0.488281 0 " fill-opacity="1" fill-rule="nonzero"/><g mask="url(#8364e5efa4)"><g transform="matrix(1, 0, 0, 1, 0.000000000000000056, 0.000000000000005041)"><g clip-path="url(#177338939e)"><g clip-path="url(#27198429c9)"><path fill="#ffffff" d="M 44.070312 16.691406 C 45.347656 19.003906 45.546875 21.5625 44.660156 24.371094 C 42.496094 31.261719 36.660156 34.878906 27.160156 35.222656 C 17.363281 35.566406 10.695312 32.90625 7.152344 27.25 C 5.824219 25.082031 5.207031 22.867188 5.304688 20.605469 C 5.402344 18.484375 6.066406 16.960938 7.296875 16.023438 C 9.070312 14.746094 10.84375 14.203125 12.613281 14.398438 C 14.582031 14.550781 16.402344 15.605469 18.078125 17.574219 C 19.0625 18.65625 20.488281 19.296875 22.359375 19.496094 C 24.28125 19.644531 25.757812 19.222656 26.792969 18.242188 C 27.578125 17.550781 28.957031 16.101562 30.929688 13.882812 C 32.945312 12.160156 35.039062 11.519531 37.207031 11.964844 C 40.402344 12.652344 42.691406 14.230469 44.070312 16.691406 Z M 44.070312 16.691406 " fill-opacity="1" fill-rule="evenodd"/><g mask="url(#e5e87c4296)"><g transform="matrix(1, 0, 0, 1, 5, 11)"><g clip-path="url(#a78a35eae7)"><g clip-path="url(#1d70f4171e)"><path fill="#000000" d="M 32.203125 0.964844 C 35.402344 1.652344 37.691406 3.226562 39.070312 5.6875 C 40.347656 8.003906 40.546875 10.5625 39.660156 13.367188 C 37.492188 20.261719 31.660156 23.878906 22.160156 24.222656 C 12.613281 24.566406 6.015625 22.007812 2.371094 16.542969 C 0.996094 14.476562 0.304688 12.308594 0.304688 10.046875 C 0.257812 7.929688 0.796875 6.355469 1.929688 5.320312 C 1.144531 6.601562 0.996094 8.226562 1.488281 10.191406 C 2.027344 12.308594 3.183594 14.207031 4.957031 15.878906 C 7.664062 18.488281 11.898438 19.839844 17.65625 19.941406 C 23.316406 20.035156 27.671875 18.929688 30.726562 16.617188 C 33.875 14.253906 34.960938 11.054688 33.972656 7.019531 C 32.941406 2.980469 30.480469 1.554688 26.589844 2.734375 L 26 2.957031 C 28.019531 1.183594 30.085938 0.519531 32.203125 0.964844 Z M 32.203125 0.964844 " fill-opacity="1" fill-rule="evenodd"/></g></g></g></g><g mask="url(#88eb26a52b)"><g transform="matrix(1, 0, 0, 1, 5, 11)"><g clip-path="url(#3637c36969)"><g clip-path="url(#be4f1ef8e0)"><path fill="#000000" d="M 32.128906 0.964844 C 35.328125 1.652344 37.617188 3.226562 38.996094 5.6875 C 40.277344 8.003906 40.472656 10.5625 39.585938 13.367188 C 37.417969 20.261719 31.585938 23.878906 22.085938 24.222656 C 15.246094 24.46875 9.832031 23.140625 5.84375 20.234375 C 2.59375 17.871094 0.75 14.917969 0.304688 11.375 C 1.144531 13.589844 2.816406 15.730469 5.324219 17.796875 C 8.476562 20.40625 11.921875 21.882812 15.664062 22.226562 C 21.71875 22.820312 26.738281 22.203125 30.726562 20.382812 C 34.515625 18.660156 36.878906 16.175781 37.8125 12.925781 C 39.527344 6.761719 37.347656 2.738281 31.28125 0.851562 Z M 32.128906 0.964844 " fill-opacity="1" fill-rule="evenodd"/></g></g></g></g></g><g clip-path="url(#f07cc33f28)"><g mask="url(#3b0e2914f5)"><g transform="matrix(1, 0, 0, 1, 5, 15)"><g clip-path="url(#95f0c96811)"><g clip-path="url(#3545ed6de6)"><path fill="#ffffff" d="M 7.039062 3.945312 C 7.1875 4.636719 7.902344 5.203125 9.179688 5.644531 C 10.609375 6.1875 11.519531 6.726562 11.914062 7.269531 C 12.554688 8.203125 12.0625 8.867188 10.4375 9.261719 C 8.710938 9.707031 7.015625 9.507812 5.339844 8.671875 C 3.765625 7.933594 2.832031 6.851562 2.535156 5.421875 C 2.289062 4.191406 2.5625 3.109375 3.347656 2.175781 C 3.9375 1.535156 4.652344 1.410156 5.488281 1.804688 C 6.328125 2.246094 6.84375 2.960938 7.039062 3.945312 Z M 7.039062 3.945312 " fill-opacity="1" fill-rule="evenodd"/></g></g></g></g></g><g mask="url(#f5b491533e)"><g transform="matrix(1, 0, 0, 1, 19, 14)"><g clip-path="url(#a80eceb886)"><g clip-path="url(#bdac0635b3)"><path fill="#ffffff" d="M 3.179688 12.0625 C 1.949219 11.375 1.433594 10.5625 1.628906 9.625 C 1.777344 9.035156 2.488281 8.640625 3.769531 8.445312 C 4.507812 8.347656 5.933594 8.125 8.050781 7.78125 C 9.480469 7.484375 10.5625 6.820312 11.300781 5.785156 C 11.695312 5.195312 12.113281 4.359375 12.554688 3.277344 C 12.949219 2.636719 13.515625 2.292969 14.253906 2.242188 C 15.1875 2.144531 15.953125 2.660156 16.542969 3.792969 C 17.476562 5.515625 17.527344 7.167969 16.691406 8.742188 C 15.609375 10.757812 13.148438 12.089844 9.308594 12.726562 C 6.75 13.171875 4.703125 12.949219 3.179688 12.0625 Z M 3.179688 12.0625 " fill-opacity="1" fill-rule="evenodd"/></g></g></g></g><path fill="#ffffff" d="M 31.960938 17.722656 C 33.042969 17.476562 33.488281 17.945312 33.289062 19.125 C 33.042969 20.355469 31.960938 21.4375 30.039062 22.375 C 28.613281 23.015625 27.257812 23.285156 25.980469 23.183594 C 24.304688 23.085938 24.257812 22.941406 25.832031 22.742188 C 27.949219 22.496094 29.375 21.660156 30.117188 20.234375 C 30.902344 18.65625 31.515625 17.824219 31.960938 17.722656 Z M 31.960938 17.722656 " fill-opacity="1" fill-rule="evenodd"/><path fill="#ffffff" d="M 10.769531 18.09375 C 11.015625 19.027344 11.261719 19.691406 11.507812 20.085938 C 11.851562 20.527344 11.703125 20.605469 11.066406 20.308594 C 10.472656 20.011719 10.058594 19.597656 9.808594 19.054688 C 9.613281 18.5625 9.6875 18.191406 10.03125 17.945312 C 10.375 17.699219 10.621094 17.746094 10.769531 18.09375 Z M 10.769531 18.09375 " fill-opacity="1" fill-rule="evenodd"/><path fill="#ffffff" d="M 12.910156 20.972656 C 13.84375 21.511719 14.238281 21.859375 14.09375 22.003906 C 13.945312 22.203125 13.625 22.175781 13.132812 21.933594 C 12.789062 21.785156 12.566406 21.535156 12.46875 21.195312 C 12.417969 20.847656 12.566406 20.773438 12.910156 20.972656 Z M 12.910156 20.972656 " fill-opacity="1" fill-rule="evenodd"/><path fill="#ffffff" d="M 23.171875 23.042969 C 23.667969 23.140625 23.9375 23.285156 23.984375 23.480469 C 23.984375 23.679688 23.742188 23.804688 23.25 23.851562 C 22.753906 23.949219 22.511719 23.804688 22.511719 23.410156 C 22.507812 23.066406 22.730469 22.941406 23.171875 23.042969 Z M 23.171875 23.042969 " fill-opacity="1" fill-rule="evenodd"/></g></g></g></g></svg>