<svg id="visual" viewBox="0 0 900 900" width="900" height="900" xmlns="http://www.w3.org/2000/svg" xmlns:xlink="http://www.w3.org/1999/xlink" version="1.1"><path d="M0 145L82 154L164 82L245 109L327 145L409 136L491 154L573 73L655 73L736 154L818 100L900 163L900 0L818 0L736 0L655 0L573 0L491 0L409 0L327 0L245 0L164 0L82 0L0 0Z" fill="#00352f"></path><path d="M0 208L82 253L164 118L245 154L327 235L409 208L491 217L573 127L655 163L736 208L818 136L900 199L900 161L818 98L736 152L655 71L573 71L491 152L409 134L327 143L245 107L164 80L82 152L0 143Z" fill="#005747"></path><path d="M0 307L82 370L164 442L245 361L327 496L409 487L491 451L573 388L655 361L736 397L818 271L900 433L900 197L818 134L736 206L655 161L573 125L491 215L409 206L327 233L245 152L164 116L82 251L0 206Z" fill="#007a5a"></path><path d="M0 415L82 433L164 559L245 460L327 541L409 550L491 496L573 496L655 397L736 505L818 307L900 532L900 431L818 269L736 395L655 359L573 386L491 449L409 485L327 494L245 359L164 440L82 368L0 305Z" fill="#038961"></path><path d="M0 532L82 514L164 631L245 550L327 631L409 595L491 631L573 604L655 460L736 577L818 424L900 577L900 530L818 305L736 503L655 395L573 494L491 494L409 548L327 539L245 458L164 557L82 431L0 413Z" fill="#007a5a"></path><path d="M0 793L82 811L164 748L245 811L327 766L409 739L491 748L573 739L655 757L736 829L818 694L900 730L900 575L818 422L736 575L655 458L573 602L491 629L409 593L327 629L245 548L164 629L82 512L0 530Z" fill="#005747"></path><path d="M0 901L82 901L164 901L245 901L327 901L409 901L491 901L573 901L655 901L736 901L818 901L900 901L900 728L818 692L736 827L655 755L573 737L491 746L409 737L327 764L245 809L164 746L82 809L0 791Z" fill="#00352f"></path></svg>