<svg xmlns="http://www.w3.org/2000/svg" xmlns:xlink="http://www.w3.org/1999/xlink" width="500" zoomAndPan="magnify" viewBox="0 0 375 374.999991" height="500" preserveAspectRatio="xMidYMid meet" version="1.0"><defs><clipPath id="cab41f088d"><path d="M 9 55 L 287 55 L 287 355.378906 L 9 355.378906 Z M 9 55 " clip-rule="nonzero"/></clipPath><clipPath id="5e64d19805"><path d="M 217 49 L 367.390625 49 L 367.390625 140 L 217 140 Z M 217 49 " clip-rule="nonzero"/></clipPath><clipPath id="d60ed212c7"><path d="M 248 19.378906 L 336 19.378906 L 336 115 L 248 115 Z M 248 19.378906 " clip-rule="nonzero"/></clipPath></defs><g clip-path="url(#cab41f088d)"><path fill="#ffffff" d="M 213.011719 103.367188 L 213.015625 103.367188 Z M 255.03125 79.210938 L 214.714844 105.9375 C 214.390625 106.15625 214.023438 106.308594 213.640625 106.390625 C 213.519531 106.410156 201.457031 108.992188 182.015625 117.953125 C 164.070312 126.222656 135.988281 141.777344 104.128906 168.90625 C 103.878906 169.125 103.589844 169.296875 103.28125 169.421875 C 103.023438 169.523438 77.140625 180.0625 53.730469 198.570312 C 22.949219 222.898438 10.773438 248.742188 17.539062 275.386719 C 24.964844 304.636719 32.367188 319.921875 43.089844 328.144531 C 53.722656 336.300781 68.125 338.015625 89.933594 340.609375 C 95.167969 341.230469 100.582031 341.875 106.542969 342.675781 C 106.804688 342.710938 107.066406 342.777344 107.308594 342.878906 C 107.621094 343.007812 138.636719 355.601562 152.0625 344.730469 C 154.953125 342.390625 156.273438 340.144531 155.992188 338.0625 C 155.355469 333.445312 147.578125 329.105469 144.902344 327.949219 C 143.753906 327.453125 143.015625 326.316406 143.039062 325.066406 C 143.058594 323.816406 143.828125 322.703125 144.992188 322.246094 C 149.910156 320.300781 158.273438 315.589844 159.777344 311.214844 C 160.164062 310.089844 160.050781 309.105469 159.40625 308.015625 C 158.847656 307.0625 157.304688 306.363281 155.0625 306.046875 C 149.761719 305.300781 140.832031 306.71875 131.175781 309.851562 C 122.671875 312.609375 114.828125 316.339844 112.097656 318.921875 C 109.785156 321.113281 105.742188 321.308594 100.40625 319.488281 C 90.425781 316.085938 73.566406 304.152344 70.816406 286.625 C 69.75 279.8125 70.96875 272.953125 74.4375 266.246094 C 78.25 258.875 84.828125 251.671875 93.984375 244.835938 C 95.796875 243.132812 112.878906 227.28125 124.570312 222.335938 C 127.195312 220.636719 152.089844 204.414062 172.308594 187.519531 C 186.972656 175.269531 193.738281 167.289062 196.660156 162.15625 L 189.609375 163.519531 C 188.191406 163.796875 186.773438 163.046875 186.195312 161.722656 C 185.617188 160.394531 186.039062 158.851562 187.207031 157.996094 C 187.367188 157.882812 203.324219 146.242188 219.480469 133.703125 C 248.078125 111.515625 252.644531 105.714844 253.347656 104.328125 C 253.136719 102.113281 246.433594 99.675781 240.53125 99.003906 C 239.320312 98.867188 238.304688 98.03125 237.9375 96.871094 C 237.570312 95.710938 237.917969 94.445312 238.828125 93.636719 Z M 136.351562 355.269531 C 122.390625 355.269531 107.976562 349.792969 105.335938 348.738281 C 99.574219 347.96875 94.304688 347.339844 89.203125 346.734375 C 66.386719 344.019531 51.308594 342.230469 39.335938 333.042969 C 27.40625 323.894531 19.355469 307.628906 11.554688 276.902344 C 7.453125 260.738281 9.726562 244.652344 18.308594 229.085938 C 25.0625 216.839844 35.730469 204.917969 50.007812 193.644531 C 72.636719 175.789062 96.734375 165.453125 100.503906 163.890625 C 132.855469 136.40625 161.402344 120.636719 179.683594 112.234375 C 197.457031 104.0625 209.058594 101.113281 211.785156 100.480469 L 261.527344 67.507812 C 261.574219 67.476562 261.621094 67.449219 261.667969 67.421875 L 281.503906 55.746094 C 282.871094 54.941406 284.628906 55.304688 285.558594 56.585938 C 286.496094 57.871094 286.304688 59.652344 285.117188 60.707031 L 247.566406 94.117188 C 248.308594 94.320312 249.082031 94.546875 249.851562 94.808594 C 258.28125 97.648438 259.75 101.933594 259.496094 105.027344 C 259.34375 106.875 258.308594 109.460938 247.679688 118.757812 C 242.023438 123.707031 234.191406 130.078125 224.402344 137.695312 C 216.1875 144.085938 207.9375 150.304688 201.675781 154.976562 C 202.445312 155.003906 203.1875 155.320312 203.746094 155.875 C 204.472656 156.59375 204.792969 157.628906 204.601562 158.632812 C 203.113281 166.570312 193.84375 177.570312 176.265625 192.253906 C 154.695312 210.277344 127.949219 227.503906 127.683594 227.675781 C 127.527344 227.773438 127.359375 227.859375 127.1875 227.929688 C 116.144531 232.472656 98.265625 249.277344 98.085938 249.445312 C 97.996094 249.527344 97.90625 249.605469 97.808594 249.679688 C 86.238281 258.289062 79.324219 267.210938 77.265625 276.195312 C 75.625 283.339844 77.066406 290.402344 81.550781 297.191406 C 85.226562 302.753906 90.929688 307.90625 97.199219 311.320312 C 103.441406 314.722656 107.183594 314.777344 107.894531 314.40625 C 112.078125 310.472656 121.671875 306.445312 129.273438 303.980469 C 134.316406 302.347656 147.011719 298.675781 155.921875 299.9375 C 160.183594 300.539062 163.148438 302.203125 164.726562 304.882812 C 166.277344 307.519531 166.582031 310.40625 165.609375 313.230469 C 163.777344 318.550781 157.621094 322.765625 152.90625 325.320312 C 156.796875 327.878906 161.371094 331.941406 162.101562 337.210938 C 162.707031 341.582031 160.636719 345.726562 155.945312 349.527344 C 150.65625 353.808594 143.5625 355.269531 136.351562 355.269531 " fill-opacity="1" fill-rule="nonzero"/></g><path fill="#ffffff" d="M 215.28125 115.402344 C 214.324219 115.402344 213.355469 115.671875 212.496094 116.246094 C 211.378906 116.984375 210.613281 118.109375 210.34375 119.40625 C 210.074219 120.691406 210.324219 121.996094 211.039062 123.078125 C 212.53125 125.324219 215.605469 125.917969 217.902344 124.398438 C 220.195312 122.878906 220.847656 119.816406 219.359375 117.566406 C 218.425781 116.160156 216.875 115.402344 215.28125 115.402344 Z M 215.125 131.414062 C 211.53125 131.414062 208.011719 129.683594 205.894531 126.488281 C 204.257812 124.019531 203.695312 121.054688 204.304688 118.144531 C 204.910156 115.246094 206.605469 112.742188 209.085938 111.101562 C 214.21875 107.703125 221.132812 109.074219 224.5 114.15625 C 227.867188 119.238281 226.4375 126.144531 221.308594 129.542969 C 219.402344 130.804688 217.25 131.414062 215.125 131.414062 " fill-opacity="1" fill-rule="nonzero"/><path fill="#ffffff" d="M 150.425781 255.464844 C 149 255.46875 147.71875 254.472656 147.410156 253.019531 L 143.703125 235.5625 L 125.199219 228.074219 C 117.46875 226.882812 111.242188 223.121094 106.683594 216.894531 C 93.714844 199.167969 98.859375 167.394531 99.085938 166.046875 C 99.371094 164.367188 100.960938 163.238281 102.640625 163.519531 C 104.320312 163.796875 105.453125 165.390625 105.171875 167.066406 C 105.117188 167.402344 100.242188 197.652344 111.667969 213.261719 C 115.332031 218.261719 120.167969 221.128906 126.449219 222.023438 C 126.695312 222.058594 126.9375 222.125 127.171875 222.21875 L 147.539062 230.460938 C 148.488281 230.84375 149.1875 231.675781 149.398438 232.679688 L 153.445312 251.738281 C 153.800781 253.40625 152.734375 255.046875 151.070312 255.398438 C 150.851562 255.445312 150.636719 255.464844 150.425781 255.464844 " fill-opacity="1" fill-rule="nonzero"/><path fill="#ffffff" d="M 88.652344 256.320312 C 88.238281 256.320312 87.816406 256.234375 87.410156 256.054688 C 80.5 253.007812 72.066406 242.519531 61.621094 223.996094 C 54.132812 210.710938 48.40625 198.066406 48.351562 197.9375 C 47.648438 196.386719 48.339844 194.558594 49.894531 193.859375 C 51.445312 193.15625 53.273438 193.847656 53.976562 195.398438 C 60.117188 209.003906 78.546875 245.398438 89.902344 250.410156 C 91.460938 251.097656 92.164062 252.917969 91.476562 254.476562 C 90.96875 255.632812 89.839844 256.320312 88.652344 256.320312 " fill-opacity="1" fill-rule="nonzero"/><path fill="#ffffff" d="M 65.40625 274.214844 C 41.113281 274.214844 12.863281 262.105469 11.488281 261.507812 C 9.925781 260.832031 9.207031 259.015625 9.886719 257.453125 C 10.5625 255.890625 12.378906 255.171875 13.941406 255.847656 C 14.316406 256.011719 51.503906 271.945312 75.390625 267.144531 C 77.0625 266.808594 78.6875 267.894531 79.023438 269.5625 C 79.359375 271.234375 78.277344 272.859375 76.605469 273.195312 C 73.058594 273.910156 69.28125 274.214844 65.40625 274.214844 " fill-opacity="1" fill-rule="nonzero"/><path fill="#ffffff" d="M 37.417969 330.371094 C 35.765625 330.371094 34.394531 329.058594 34.335938 327.394531 C 34.277344 325.691406 35.609375 324.265625 37.3125 324.203125 C 45.089844 323.9375 65.964844 307.496094 77.296875 297.195312 C 78.558594 296.050781 80.511719 296.140625 81.65625 297.402344 C 82.804688 298.667969 82.710938 300.613281 81.449219 301.761719 C 81.136719 302.046875 73.710938 308.777344 64.699219 315.679688 C 52.042969 325.371094 43.15625 330.175781 37.527344 330.367188 C 37.492188 330.371094 37.453125 330.371094 37.417969 330.371094 " fill-opacity="1" fill-rule="nonzero"/><path fill="#ffffff" d="M 106.132812 348.816406 C 105.335938 348.816406 104.542969 348.515625 103.9375 347.902344 C 102.742188 346.691406 102.75 344.738281 103.960938 343.539062 C 110.3125 337.25 108.300781 322.574219 106.988281 317.445312 C 106.566406 315.796875 107.5625 314.117188 109.214844 313.695312 C 110.863281 313.273438 112.542969 314.265625 112.96875 315.917969 C 113.195312 316.8125 118.441406 337.886719 108.300781 347.925781 C 107.699219 348.519531 106.917969 348.816406 106.132812 348.816406 " fill-opacity="1" fill-rule="nonzero"/><path fill="#ffffff" d="M 133.324219 330.792969 C 131.886719 330.792969 130.597656 329.785156 130.300781 328.320312 C 129.964844 326.652344 131.042969 325.019531 132.714844 324.683594 L 145.507812 322.089844 C 147.179688 321.753906 148.808594 322.832031 149.144531 324.503906 C 149.484375 326.171875 148.402344 327.800781 146.734375 328.140625 L 133.9375 330.730469 C 133.730469 330.773438 133.527344 330.792969 133.324219 330.792969 " fill-opacity="1" fill-rule="nonzero"/><g clip-path="url(#5e64d19805)"><path fill="#ffffff" d="M 220.8125 139.65625 C 219.328125 139.65625 218.015625 138.585938 217.769531 137.070312 C 217.496094 135.386719 218.636719 133.800781 220.320312 133.527344 C 220.625 133.480469 251.257812 128.410156 283.886719 115.644531 C 313.605469 104.023438 351.132812 83.46875 361.15625 51.558594 C 361.667969 49.933594 363.398438 49.03125 365.019531 49.542969 C 366.648438 50.054688 367.550781 51.785156 367.039062 53.410156 C 362.253906 68.652344 351.503906 82.679688 335.082031 95.117188 C 322.140625 104.917969 305.632812 113.773438 286.03125 121.429688 C 252.808594 134.414062 221.621094 139.566406 221.308594 139.621094 C 221.144531 139.644531 220.976562 139.65625 220.8125 139.65625 " fill-opacity="1" fill-rule="nonzero"/></g><g clip-path="url(#d60ed212c7)"><path fill="#ffffff" d="M 251.613281 114.050781 C 250.5 114.050781 249.421875 113.445312 248.875 112.386719 C 248.085938 110.875 248.675781 109.011719 250.1875 108.226562 C 254.328125 106.074219 275.988281 94.628906 295.59375 80.8125 C 319.132812 64.230469 331.121094 50.226562 329.363281 41.382812 C 328.234375 35.703125 320.355469 28.371094 289.242188 25.675781 C 287.542969 25.527344 286.289062 24.035156 286.4375 22.335938 C 286.582031 20.636719 288.070312 19.382812 289.773438 19.527344 C 318.210938 21.992188 333.140625 28.746094 335.414062 40.175781 C 336.765625 46.960938 333.511719 54.617188 325.464844 63.578125 C 319.40625 70.324219 310.554688 77.824219 299.152344 85.855469 C 279.21875 99.902344 257.238281 111.515625 253.035156 113.699219 C 252.578125 113.933594 252.09375 114.050781 251.613281 114.050781 " fill-opacity="1" fill-rule="nonzero"/></g><path fill="#ffffff" d="M 180.023438 210.765625 C 179.003906 210.765625 178.03125 210.257812 177.453125 209.382812 L 167.792969 194.816406 C 166.851562 193.394531 167.242188 191.480469 168.660156 190.539062 C 170.082031 189.59375 171.996094 189.984375 172.9375 191.402344 L 181.414062 204.191406 L 217.785156 195.746094 C 219.445312 195.363281 221.101562 196.394531 221.488281 198.054688 C 221.871094 199.710938 220.839844 201.371094 219.183594 201.757812 L 180.722656 210.683594 C 180.492188 210.738281 180.257812 210.765625 180.023438 210.765625 " fill-opacity="1" fill-rule="nonzero"/><path fill="#ffffff" d="M 169.460938 242.851562 C 168.140625 242.851562 166.921875 242 166.515625 240.671875 L 161.558594 224.582031 L 143.722656 215.101562 C 142.21875 214.304688 141.648438 212.4375 142.445312 210.933594 C 143.246094 209.429688 145.113281 208.855469 146.617188 209.65625 L 165.578125 219.730469 C 166.296875 220.113281 166.839844 220.765625 167.078125 221.546875 L 172.410156 238.855469 C 172.914062 240.484375 172 242.210938 170.371094 242.710938 C 170.066406 242.808594 169.761719 242.851562 169.460938 242.851562 " fill-opacity="1" fill-rule="nonzero"/><path fill="#ffffff" d="M 131.144531 268.246094 C 129.824219 268.246094 128.597656 267.386719 128.195312 266.054688 L 123.101562 249.253906 L 105.269531 240.730469 C 103.730469 239.996094 103.082031 238.152344 103.816406 236.617188 C 104.550781 235.078125 106.390625 234.429688 107.929688 235.164062 L 126.988281 244.273438 C 127.769531 244.644531 128.359375 245.332031 128.613281 246.160156 L 134.101562 264.261719 C 134.59375 265.894531 133.671875 267.617188 132.042969 268.113281 C 131.746094 268.203125 131.441406 268.246094 131.144531 268.246094 " fill-opacity="1" fill-rule="nonzero"/></svg>