<svg id="visual" viewBox="0 0 960 540" width="960" height="540" xmlns="http://www.w3.org/2000/svg" xmlns:xlink="http://www.w3.org/1999/xlink" version="1.1"><path d="M0 73L137 79L274 82L411 73L549 56L686 64L823 88L960 70L960 0L823 0L686 0L549 0L411 0L274 0L137 0L0 0Z" fill="#ffffff"></path><path d="M0 54L137 48L274 64L411 68L549 64L686 66L823 48L960 71L960 0L823 0L686 0L549 0L411 0L274 0L137 0L0 0Z" fill="#d3d5ee"></path><path d="M0 41L137 43L274 38L411 45L549 47L686 42L823 37L960 39L960 0L823 0L686 0L549 0L411 0L274 0L137 0L0 0Z" fill="#a7acdd"></path><path d="M0 27L137 22L274 33L411 37L549 38L686 26L823 31L960 27L960 0L823 0L686 0L549 0L411 0L274 0L137 0L0 0Z" fill="#7985cb"></path><path d="M0 11L137 25L274 12L411 8L549 10L686 20L823 13L960 24L960 0L823 0L686 0L549 0L411 0L274 0L137 0L0 0Z" fill="#4360b9"></path></svg>