<!DOCTYPE svg PUBLIC "-//W3C//DTD SVG 1.1//EN" "http://www.w3.org/Graphics/SVG/1.1/DTD/svg11.dtd">
<!-- Uploaded to: SVG Repo, www.svgrepo.com, Transformed by: SVG Repo Mixer Tools -->
<svg fill="#b3bfe3" width="800px" height="800px" viewBox="0 0 24 24" xmlns="http://www.w3.org/2000/svg" stroke="#b3bfe3">
<g id="SVGRepo_bgCarrier" stroke-width="0"/>
<g id="SVGRepo_tracerCarrier" stroke-linecap="round" stroke-linejoin="round"/>
<g id="SVGRepo_iconCarrier">
<path d="M11.707 2.293A.997.997 0 0 0 11 2H6a.997.997 0 0 0-.707.293l-3 3A.996.996 0 0 0 2 6v5c0 .266.105.52.293.707l10 10a.997.997 0 0 0 1.414 0l8-8a.999.999 0 0 0 0-1.414l-10-10zM13 19.586l-9-9V6.414L6.414 4h4.172l9 9L13 19.586z"/>
<circle cx="8.353" cy="8.353" r="1.647"/>
</g>
</svg>