<!DOCTYPE svg PUBLIC "-//W3C//DTD SVG 1.1//EN" "http://www.w3.org/Graphics/SVG/1.1/DTD/svg11.dtd">
<!-- Uploaded to: SVG Repo, www.svgrepo.com, Transformed by: SVG Repo Mixer Tools -->
<svg fill="#5478f3" width="800px" height="800px" viewBox="0 0 1024 1024" xmlns="http://www.w3.org/2000/svg">
<g id="SVGRepo_bgCarrier" stroke-width="0"/>
<g id="SVGRepo_tracerCarrier" stroke-linecap="round" stroke-linejoin="round"/>
<g id="SVGRepo_iconCarrier">
<path d="M643.759 876.884c77.46-26.672 141.075-75.755 185.988-137.307a19.72 19.72 0 005.693-17.36 19.44 19.44 0 00-.088-.589l-.01-.049a19.667 19.667 0 00-10.709-14.159l-56.53-40.088a19.77 19.77 0 00-17.265-5.427c-.155.02-.31.042-.464.066l-.072.019a19.825 19.825 0 00-14.149 10.532c-31.44 42.857-75.609 76.947-129.836 95.619-140.801 48.482-293.643-25.746-341.963-166.079s26.422-292.924 167.222-341.406c131.991-45.448 273.616 14.979 330.786 138.05l-89.429.558c-8.995-1.174-17.65 3.91-20.99 12.331a19.656 19.656 0 006.332 23.117l153.694 155.17c3.812 3.848 9.047 5.96 14.475 5.84s10.574-2.461 14.228-6.475l148.171-162.749c6.482-5.349 8.872-14.193 5.961-22.048-.05-.132-.102-.264-.156-.394a19.374 19.374 0 00-1.228-2.599l-.04-.09c-4.015-7.084-11.99-10.968-20.072-9.775l-89.491.945-1.173-3.406c-68.86-199.985-287.86-306.346-488.523-237.252S86.366 439.616 155.226 639.601c68.86 199.985 287.86 306.345 488.523 237.251l.011.033z"/>
</g>
</svg>