<!DOCTYPE svg PUBLIC "-//W3C//DTD SVG 1.1//EN" "http://www.w3.org/Graphics/SVG/1.1/DTD/svg11.dtd">
<!-- Uploaded to: SVG Repo, www.svgrepo.com, Transformed by: SVG Repo Mixer Tools -->
<svg fill="#5478f3" height="800px" width="800px" version="1.1" id="Layer_1" xmlns="http://www.w3.org/2000/svg" xmlns:xlink="http://www.w3.org/1999/xlink" viewBox="0 0 511.999 511.999" xml:space="preserve" stroke="#5478f3">
<g id="SVGRepo_bgCarrier" stroke-width="0"/>
<g id="SVGRepo_tracerCarrier" stroke-linecap="round" stroke-linejoin="round"/>
<g id="SVGRepo_iconCarrier"> <g> <g> <path d="M203.57,235.415l-9.842-29.526l10.033-30.097c0.831-2.491,0.413-5.231-1.123-7.362c-1.535-2.13-4.001-3.392-6.628-3.392 c-14.24,0-27.715,5.221-38.127,14.565c-6.113-5.487-13.289-9.538-21.051-11.96c2.77-3.21,2.641-8.059-0.406-11.106 c-3.192-3.19-8.364-3.19-11.555,0l-8.619,8.619c-22.758,1.399-42.748,16.312-50.421,38.009c-0.622,1.761-0.622,3.685,0,5.447 c7.672,21.698,27.663,36.611,50.421,38.009l8.619,8.619c1.596,1.595,3.688,2.392,5.778,2.392s4.182-0.797,5.778-2.392 c3.046-3.047,3.177-7.896,0.406-11.106c7.762-2.422,14.936-6.473,21.051-11.96c10.41,9.346,23.885,14.567,38.125,14.567 c4.534,0,8.192-3.657,8.192-8.17C204.201,237.451,203.976,236.385,203.57,235.415z M177.364,208.473l6.72,20.16 c-7.715-2.348-14.628-6.964-19.849-13.423c-1.551-1.919-3.887-3.034-6.354-3.034s-4.803,1.114-6.354,3.034 c-7.803,9.653-19.384,15.19-31.773,15.19c-16.298,0-30.994-9.737-37.443-24.51c6.449-14.775,21.145-24.51,37.443-24.51 c12.389,0,23.97,5.537,31.773,15.191c1.551,1.919,3.886,3.034,6.354,3.034c2.467,0,4.803-1.114,6.354-3.034 c5.221-6.461,12.134-11.077,19.849-13.424l-6.72,20.16C176.806,204.983,176.806,206.796,177.364,208.473z"/> </g> </g> <g> <g> <path d="M446.028,189.662l-9.842-29.526l10.033-30.097c0.831-2.491,0.413-5.231-1.123-7.362c-1.535-2.13-4.001-3.392-6.628-3.392 c-14.24,0-27.715,5.221-38.127,14.565c-6.113-5.487-13.289-9.538-21.051-11.96c2.77-3.21,2.641-8.059-0.406-11.106 c-3.192-3.19-8.364-3.19-11.555,0l-8.619,8.619c-22.758,1.399-42.747,16.312-50.42,38.009c-0.622,1.762-0.622,3.685,0,5.447 c7.672,21.698,27.662,36.611,50.42,38.009l8.619,8.619c1.596,1.595,3.688,2.392,5.778,2.392s4.182-0.797,5.778-2.392 c3.046-3.047,3.177-7.896,0.406-11.106c7.762-2.422,14.936-6.473,21.051-11.96c10.41,9.346,23.885,14.567,38.125,14.567 c4.534,0,8.192-3.657,8.192-8.17C446.658,191.698,446.434,190.632,446.028,189.662z M419.822,162.72l6.72,20.16 c-7.715-2.348-14.628-6.964-19.849-13.423c-1.551-1.919-3.887-3.034-6.354-3.034s-4.803,1.114-6.354,3.034 c-7.803,9.653-19.384,15.19-31.773,15.19c-16.297,0-30.993-9.737-37.442-24.51c6.449-14.775,21.145-24.51,37.442-24.51 c12.389,0,23.97,5.537,31.773,15.191c1.551,1.919,3.886,3.034,6.354,3.034c2.467,0,4.803-1.114,6.354-3.034 c5.221-6.461,12.134-11.077,19.849-13.424l-6.72,20.16C419.263,159.23,419.263,161.043,419.822,162.72z"/> </g> </g> <g> <g> <path d="M507.396,25.878c-4.062-1.972-8.947-0.279-10.918,3.78c-7.922,16.313-24.099,26.445-42.217,26.445 c-18.118,0-34.294-10.133-42.217-26.445c-1.366-2.814-4.22-4.601-7.349-4.601c-3.129,0-5.983,1.788-7.349,4.601 c-7.922,16.313-24.099,26.445-42.217,26.445c-18.118,0-34.294-10.133-42.217-26.445c-1.366-2.814-4.22-4.601-7.349-4.601 c-3.129,0-5.983,1.788-7.349,4.601c-7.922,16.313-24.099,26.445-42.217,26.445s-34.294-10.133-42.217-26.445 c-1.366-2.814-4.22-4.601-7.349-4.601c-3.129,0-5.983,1.788-7.349,4.601c-7.922,16.313-24.099,26.445-42.217,26.445 s-34.294-10.133-42.217-26.445c-1.366-2.814-4.22-4.601-7.349-4.601c-3.129,0-5.983,1.788-7.349,4.601 c-7.922,16.313-24.099,26.445-42.217,26.445c-18.118,0-34.294-10.132-42.217-26.445c-1.971-4.059-6.857-5.753-10.917-3.78 c-4.059,1.971-5.751,6.859-3.78,10.917c10.517,21.656,32.856,35.648,56.914,35.648c19.409,0,37.698-9.106,49.566-23.996 c11.867,14.89,30.157,23.996,49.566,23.996c19.409,0,37.698-9.106,49.566-23.996c11.867,14.89,30.157,23.996,49.566,23.996 c19.409,0,37.698-9.106,49.566-23.996c11.867,14.89,30.157,23.996,49.566,23.996c19.409,0,37.698-9.106,49.566-23.996 c11.867,14.89,30.157,23.996,49.566,23.996c24.058,0,46.399-13.993,56.914-35.648C513.148,32.735,511.455,27.847,507.396,25.878z"/> </g> </g> <g> <g> <path d="M460.74,412.696c-5.589-22.851-24.644-40.061-47.878-43.368v-17.741c16.214-3.304,28.954-16.246,31.983-32.555 c18.967-3.523,33.378-20.181,33.378-40.154c0-4.513-3.657-8.17-8.17-8.17c-4.513,0-8.17,3.657-8.17,8.17 c0,10.651-6.831,19.733-16.34,23.105v-23.105c0-4.513-3.657-8.17-8.17-8.17s-8.17,3.657-8.17,8.17v32.681 c0,10.651-6.831,19.733-16.34,23.105V257.09c0-4.513-3.657-8.17-8.17-8.17c-4.513,0-8.17,3.657-8.17,8.17v55.786 c-9.509-3.373-16.34-12.455-16.34-23.105V257.09c0-4.513-3.657-8.17-8.17-8.17c-4.513,0-8.17,3.657-8.17,8.17v23.105 c-9.509-3.373-16.34-12.455-16.34-23.105c0-4.513-3.657-8.17-8.17-8.17s-8.17,3.657-8.17,8.17 c0,19.972,14.411,36.631,33.378,40.154c3.029,16.311,15.769,29.251,31.983,32.555v39.549 c-14.631,2.077-27.903,9.663-37.126,21.349c-1.428-0.107-2.852-0.16-4.266-0.16c-31.836,0-57.736,25.899-57.736,57.736v13.961 c-8.755,0.768-14.312,2.711-19.329,4.476c-4.235,1.489-8.071,2.83-13.901,3.48v-38.535c18.624-3.795,32.681-20.3,32.681-40.028 v-3.546c18.624-3.795,32.681-20.3,32.681-40.028c0-4.513-3.657-8.17-8.17-8.17c-4.513,0-8.17,3.657-8.17,8.17 c0,10.651-6.831,19.733-16.34,23.105v-23.105c0-4.513-3.657-8.17-8.17-8.17s-8.17,3.657-8.17,8.17v43.574 c0,10.651-6.831,19.733-16.34,23.105v-55.786c0-4.513-3.657-8.17-8.17-8.17c-4.513,0-8.17,3.657-8.17,8.17v77.573 c-9.509-3.373-16.34-12.455-16.34-23.105v-32.681c0-4.513-3.657-8.17-8.17-8.17s-8.17,3.657-8.17,8.17v23.105 c-9.509-3.373-16.34-12.455-16.34-23.105c0-4.513-3.657-8.17-8.17-8.17s-8.17,3.657-8.17,8.17 c0,19.972,14.411,36.631,33.378,40.154c3.029,16.311,15.769,29.251,31.983,32.555v16.748c-5.83-0.649-9.665-1.99-13.901-3.48 c-6.424-2.259-13.706-4.82-27.491-4.82c-13.786,0-21.068,2.561-27.493,4.82c-5.942,2.089-11.076,3.894-22.073,3.894 c-10.996,0-16.129-1.805-22.071-3.894c-5.016-1.765-10.572-3.707-19.323-4.476v-17.507c18.624-3.795,32.681-20.3,32.681-40.028 c0-4.513-3.657-8.17-8.17-8.17s-8.17,3.657-8.17,8.17c0,10.651-6.831,19.733-16.34,23.105v-55.786c0-4.513-3.657-8.17-8.17-8.17 c-4.513,0-8.17,3.657-8.17,8.17v33.999c-9.509-3.373-16.34-12.455-16.34-23.105v-32.681c0-4.513-3.657-8.17-8.17-8.17 s-8.17,3.657-8.17,8.17v23.105c-9.509-3.373-16.34-12.455-16.34-23.105c0-4.513-3.657-8.17-8.17-8.17s-8.17,3.657-8.17,8.17 c0,19.972,14.411,36.631,33.378,40.154c3.029,16.311,15.769,29.251,31.983,32.555v39.294c-8.75,0.769-14.305,2.711-19.322,4.476 c-5.942,2.089-11.076,3.894-22.071,3.894c-10.997,0-16.13-1.805-22.073-3.894c-6.425-2.259-13.707-4.82-27.492-4.82 c-4.513,0-8.17,3.657-8.17,8.17c0,4.513,3.657,8.17,8.17,8.17c10.996,0,16.129,1.805,22.071,3.894 c6.425,2.259,13.707,4.82,27.493,4.82c13.785,0,21.067-2.561,27.492-4.82c5.942-2.089,11.076-3.894,22.073-3.894 c10.996,0,16.129,1.805,22.071,3.894c6.424,2.259,13.706,4.82,27.492,4.82s21.068-2.561,27.493-4.82 c5.942-2.089,11.075-3.894,22.072-3.894c10.996,0,16.128,1.805,22.07,3.894c6.424,2.259,13.706,4.82,27.492,4.82 s21.068-2.561,27.492-4.82c5.942-2.089,11.075-3.894,22.071-3.894c10.997,0,16.13,1.805,22.073,3.894 c6.425,2.259,13.707,4.82,27.493,4.82s21.068-2.561,27.493-4.82c5.942-2.089,11.075-3.894,22.071-3.894 c10.998,0,16.131,1.805,22.075,3.894c6.426,2.259,13.71,4.82,27.496,4.82s21.07-2.561,27.494-4.82 c5.945-2.089,11.078-3.894,22.077-3.894c4.513,0,8.17-3.657,8.17-8.17C511.998,440.413,489.536,415.927,460.74,412.696z M476.331,466.708c-5.944,2.089-11.077,3.894-22.075,3.894c-10.999,0-16.132-1.805-22.077-3.894 c-6.425-2.259-13.707-4.82-27.494-4.82c-13.785,0-21.067,2.561-27.492,4.82c-5.942,2.089-11.075,3.894-22.073,3.894 c-10.997,0-16.13-1.805-22.072-3.894c-5.015-1.764-10.569-3.706-19.315-4.475v-13.962c0-22.825,18.57-41.395,41.396-41.395 c2.228,0,4.499,0.187,6.753,0.558c3.197,0.534,6.388-0.881,8.159-3.585c7.693-11.747,20.645-18.76,34.65-18.76 c18.057,0,33.676,11.657,39.223,28.184c-13.006,2.366-24.903,9.132-33.632,19.384c-2.925,3.436-2.511,8.593,0.925,11.518 c3.438,2.926,8.594,2.512,11.518-0.925c7.832-9.201,19.215-14.5,31.264-14.58c0.032,0,0.063-0.002,0.095-0.002 c0.059,0,0.119-0.004,0.178-0.004c20.172,0,37.02,14.504,40.665,33.631C486.585,463.103,481.212,464.992,476.331,466.708z"/> </g> </g> <g> <g> <circle cx="291.479" cy="124.73" r="8.17"/> </g> </g> <g> <g> <circle cx="351.862" cy="440.643" r="8.17"/> </g> </g> <g> <g> <circle cx="81.702" cy="137.802" r="8.17"/> </g> </g> <g> <g> <circle cx="49.021" cy="170.483" r="8.17"/> </g> </g> </g>
</svg>