<!DOCTYPE svg PUBLIC "-//W3C//DTD SVG 1.1//EN" "http://www.w3.org/Graphics/SVG/1.1/DTD/svg11.dtd">
<!-- Uploaded to: SVG Repo, www.svgrepo.com, Transformed by: SVG Repo Mixer Tools -->
<svg version="1.1" id="designs" xmlns="http://www.w3.org/2000/svg" xmlns:xlink="http://www.w3.org/1999/xlink" width="800px" height="800px" viewBox="0 0 32 32" xml:space="preserve" fill="#b3bfe3">
<g id="SVGRepo_bgCarrier" stroke-width="0"/>
<g id="SVGRepo_tracerCarrier" stroke-linecap="round" stroke-linejoin="round"/>
<g id="SVGRepo_iconCarrier"> <style type="text/css"> .sketchy_een{fill:#b3bfe3;} </style> <path class="sketchy_een" d="M21.194,17.383c0.026-0.034,0.051-0.067,0.077-0.101c0.007-0.009,0.015-0.019,0.022-0.028 C21.26,17.297,21.227,17.34,21.194,17.383z M28.916,3.008c-0.004,0.722-0.018,1.443-0.026,2.167 c-0.006,0.712-0.012,1.419-0.066,2.129c-0.056,0.758-0.193,1.514-0.334,2.26c-0.127,0.671-0.289,1.337-0.531,1.978 c-0.316,0.84-0.698,1.656-1.067,2.475c-0.344,0.756-0.718,1.49-1.156,2.195c-0.478,0.77-1.045,1.494-1.646,2.171 c-0.265,0.302-0.543,0.591-0.81,0.889c-0.283,0.316-0.561,0.637-0.846,0.951c-0.32,0.35-0.909,0.324-1.232,0 c-0.328-0.328-0.346-0.909,0-1.234c0.462-0.432,0.88-0.915,1.321-1.373c0.399-0.418,0.78-0.848,1.138-1.301 c0.538-0.714,1.018-1.465,1.429-2.259c0.217-0.422,0.414-0.854,0.617-1.285c0.165-0.351,0.334-0.699,0.491-1.053 c0.234-0.59,0.448-1.186,0.595-1.805c0.04-0.167,0.068-0.338,0.101-0.507c-0.648,1.221-1.446,2.358-2.239,3.49 c-0.515,0.736-1.059,1.449-1.606,2.159c-0.567,0.736-1.168,1.443-1.735,2.177c0.02-0.027,0.041-0.054,0.062-0.081 c-0.035,0.044-0.069,0.089-0.103,0.133c-0.333,0.428-0.674,0.847-1.016,1.269c-0.141,0.173-0.412,0.259-0.625,0.259 c-0.032,0-0.061-0.015-0.092-0.018c-0.069,0.045-0.14,0.088-0.22,0.11c-0.208,0.057-0.38,0.019-0.566-0.054 c0.003,0.001,0.006,0.002,0.009,0.004c-0.027-0.011-0.055-0.021-0.082-0.031c-0.546,0.665-1.116,1.302-1.707,1.929 c-0.583,0.619-1.148,1.252-1.735,1.868c-0.593,0.621-1.218,1.21-1.845,1.799c-0.629,0.589-1.262,1.174-1.914,1.737 c-0.625,0.541-1.256,1.069-1.862,1.628c-0.322,0.3-0.639,0.607-0.971,0.895c-0.374,0.32-0.78,0.599-1.19,0.868 c-0.241,0.16-0.54,0.136-0.789,0.011c-0.278,0.161-0.654,0.204-0.919,0.013c-0.228-0.166-0.45-0.342-0.673-0.516 c-0.133,0.176-0.267,0.352-0.4,0.528c-0.141,0.185-0.275,0.326-0.509,0.39C3.948,30.03,3.708,30,3.511,29.885 c-0.372-0.219-0.573-0.786-0.304-1.164c0.161-0.225,0.326-0.448,0.49-0.669c0.026-0.035,0.056-0.06,0.083-0.092 c-0.021-0.02-0.044-0.037-0.066-0.057c-0.33-0.312-0.342-0.822-0.105-1.189c0.011-0.026,0.012-0.054,0.025-0.079 c0.239-0.452,0.505-0.891,0.76-1.335c0.219-0.384,0.448-0.764,0.675-1.146c0.454-0.762,0.941-1.506,1.433-2.245 c0.486-0.728,0.979-1.453,1.504-2.155c0.559-0.752,1.132-1.494,1.709-2.233c0.561-0.718,1.112-1.445,1.697-2.145 c0.578-0.692,1.168-1.373,1.774-2.042c-0.102-0.228-0.157-0.434-0.089-0.684c0.034-0.121,0.097-0.231,0.176-0.327 c0.011-0.129,0.045-0.255,0.114-0.352c0.348-0.477,0.75-0.893,1.16-1.315c0.344-0.356,0.683-0.716,1.029-1.07 c0.728-0.744,1.49-1.433,2.302-2.084c0.732-0.587,1.465-1.18,2.237-1.715c0.758-0.525,1.532-1.015,2.326-1.479 c0.376-0.221,0.75-0.442,1.138-0.639c0.412-0.211,0.832-0.404,1.258-0.587c0.901-0.388,1.801-0.766,2.742-1.047 C27.659,2.011,27.738,2,27.816,2c0.212,0,0.412,0.085,0.572,0.221C28.695,2.351,28.916,2.657,28.916,3.008z M17.118,18.088 c-0.058-0.035-0.12-0.064-0.177-0.101c-0.583-0.38-1.116-0.832-1.608-1.325c-0.446-0.444-0.886-0.931-1.232-1.459 c-0.041-0.064-0.07-0.135-0.108-0.201c-0.555,0.605-1.112,1.208-1.642,1.833c-0.628,0.74-1.219,1.513-1.813,2.278 c-1.001,1.318-1.96,2.664-2.881,4.04c-0.46,0.689-0.901,1.391-1.333,2.099c-0.215,0.352-0.42,0.71-0.623,1.067 c-0.102,0.181-0.2,0.363-0.303,0.543c0.205,0.193,0.408,0.387,0.618,0.574c0.229,0.202,0.469,0.389,0.7,0.587 c0.18-0.113,0.358-0.228,0.532-0.354c0.495-0.396,0.952-0.833,1.417-1.26c0.495-0.456,1.005-0.893,1.516-1.329 c0.639-0.547,1.276-1.096,1.902-1.658c0.633-0.573,1.276-1.144,1.865-1.765c0.605-0.637,1.194-1.292,1.783-1.946 c0.306-0.34,0.611-0.684,0.909-1.031C16.804,18.488,16.96,18.286,17.118,18.088z M26.535,5.79c0.206-0.564,0.398-1.13,0.516-1.717 c-0.492,0.169-0.98,0.348-1.464,0.545C25.136,4.809,24.68,5,24.25,5.234c-0.464,0.257-0.927,0.517-1.377,0.794 c-0.882,0.542-1.735,1.125-2.563,1.747c-0.98,0.765-1.955,1.546-2.835,2.426c-0.452,0.454-0.893,0.919-1.333,1.383 c-0.409,0.432-0.839,0.846-1.222,1.3c0.084,0.199,0.17,0.397,0.254,0.596c0.088,0.201,0.177,0.404,0.285,0.594 c0.099,0.178,0.212,0.346,0.332,0.509c0.457,0.558,0.983,1.075,1.546,1.527c0.488,0.371,0.987,0.756,1.548,1.005 c0.067,0.028,0.132,0.058,0.199,0.087c0.384-0.453,0.76-0.911,1.128-1.378c0.361-0.454,0.734-0.9,1.092-1.354 c0.315-0.408,0.632-0.816,0.95-1.221c0.689-0.892,1.336-1.824,1.953-2.767c0.609-0.929,1.179-1.901,1.62-2.923 C26.066,6.971,26.316,6.385,26.535,5.79z"/> </g>
</svg>